<svg xmlns="http://www.w3.org/2000/svg" viewBox="0 0 64 64">
  <circle cx="32" cy="32" r="32" fill="#5B0EA6"/>
  <ellipse cx="32" cy="20" rx="3" ry="8" fill="#C9A227" opacity="0.9"/>
  <ellipse cx="32" cy="20" rx="3" ry="8" fill="#C9A227" opacity="0.85" transform="rotate(35 32 32)"/>
  <ellipse cx="32" cy="20" rx="3" ry="8" fill="#C9A227" opacity="0.85" transform="rotate(-35 32 32)"/>
  <ellipse cx="32" cy="20" rx="2.5" ry="7" fill="#C9A227" opacity="0.7" transform="rotate(60 32 32)"/>
  <ellipse cx="32" cy="20" rx="2.5" ry="7" fill="#C9A227" opacity="0.7" transform="rotate(-60 32 32)"/>
  <circle cx="32" cy="38" r="9" fill="white"/>
  <circle cx="32" cy="27" r="7" fill="white"/>
  <circle cx="29.5" cy="26" r="1.5" fill="#5B0EA6"/>
  <circle cx="34.5" cy="26" r="1.5" fill="#5B0EA6"/>
  <path d="M31 29 L33 29 L32 31 Z" fill="#C9A227"/>
  <path d="M28 22 L30 18 L32 21 L34 17 L36 21 L38 18 L38 23 L28 23 Z" fill="#C9A227"/>
</svg>
